<?xml version="1.0" encoding="UTF-8"?>
<svg width="13px" height="19px" viewBox="0 0 13 19" version="1.1" xmlns="http://www.w3.org/2000/svg" xmlns:xlink="http://www.w3.org/1999/xlink">
    <!-- Generator: Sketch 47.1 (45422) - http://www.bohemiancoding.com/sketch -->
    <title>Group</title>
    <desc>Created with Sketch.</desc>
    <defs></defs>
    <g id="Boostrap-3-Grid" stroke="none" stroke-width="1" fill="none" fill-rule="evenodd">
        <g id="Home" transform="translate(-96.000000, -5080.000000)" fill="#979797">
            <g id="Helden" transform="translate(-198.000000, 4771.000000)">
                <g id="Alle-projecten" transform="translate(291.000000, 192.000000)">
                    <g id="Group" transform="translate(2.545455, 117.454545)">
                        <path d="M6.52390469,0 C5.04802233,0 3.8474341,1.20058824 3.8474341,2.67647059 C3.8474341,4.15235294 5.04802233,5.35294118 6.52390469,5.35294118 C7.99978704,5.35294118 9.20037527,4.15235294 9.20037527,2.67647059 C9.20037527,1.20058824 7.99978704,0 6.52390469,0" id="Fill-107"></path>
                        <path d="M2.82662822,8.81912353 C2.79756939,8.82524118 2.76851057,8.82600588 2.74174586,8.83824118 L0.650275274,9.81859412 C0.549334097,9.86524118 0.474392921,9.95471176 0.444569391,10.0617706 C0.414745862,10.1695941 0.432334097,10.2843 0.494275274,10.3768294 L3.76798116,15.2785941 L4.31703998,15.2785941 L2.82662822,8.81912353 Z" id="Fill-108"></path>
                        <path d="M12.6034694,10.0617706 C12.5736459,9.95471176 12.49794,9.86524118 12.3969988,9.81859412 L10.3062929,8.83824118 C10.2795282,8.82600588 10.2504694,8.82524118 10.2221753,8.81912353 L8.7309988,15.2785941 L9.27929292,15.2785941 L12.5537635,10.3768294 C12.6157047,10.2843 12.6332929,10.1695941 12.6034694,10.0617706" id="Fill-109"></path>
                        <path d="M7.9457988,15.2784412 L9.95544586,6.57073529 C9.98909292,6.42544118 9.93556351,6.27479412 9.81856351,6.18302941 C9.7007988,6.09126471 9.54097527,6.07597059 9.41021057,6.14326471 C7.50762233,7.1045 5.5790341,7.10373529 3.63438704,6.14173529 C3.50285763,6.07673529 3.3437988,6.09355882 3.22756351,6.18455882 C3.11209292,6.27632353 3.05932822,6.42697059 3.09221057,6.57073529 L5.10185763,15.2784412 L7.9457988,15.2784412 Z" id="Fill-110"></path>
                        <path d="M11.0882812,16.0588235 L1.93551645,16.0588235 C1.72445763,16.0588235 1.55316351,16.2301176 1.55316351,16.4411765 L1.55316351,17.9552941 C1.55316351,18.1663529 1.72445763,18.3376471 1.93551645,18.3376471 L11.0882812,18.3376471 C11.29934,18.3376471 11.4706341,18.1663529 11.4706341,17.9552941 L11.4706341,16.4411765 C11.4706341,16.2301176 11.29934,16.0588235 11.0882812,16.0588235" id="Fill-111"></path>
                    </g>
                </g>
            </g>
        </g>
    </g>
</svg>