<?xml version="1.0" encoding="UTF-8"?>
<svg width="21px" height="20px" viewBox="0 0 21 20" version="1.1" xmlns="http://www.w3.org/2000/svg" xmlns:xlink="http://www.w3.org/1999/xlink">
    <!-- Generator: Sketch 47.1 (45422) - http://www.bohemiancoding.com/sketch -->
    <title>Fill 263</title>
    <desc>Created with Sketch.</desc>
    <defs></defs>
    <g id="Boostrap-3-Grid" stroke="none" stroke-width="1" fill="none" fill-rule="evenodd">
        <g id="Home" transform="translate(-1252.000000, -6821.000000)" fill="#0077B5">
            <path d="M1266.00899,6831.95159 C1264.90541,6831.95159 1264.01156,6832.85241 1264.01156,6833.96235 L1264.01156,6841 L1259.01798,6841 C1259.01798,6841 1259.0769,6828.93545 1259.01798,6827.93008 L1264.01156,6827.93008 L1264.01156,6829.42306 C1264.01156,6829.42306 1265.55757,6827.9723 1267.9455,6827.9723 C1270.9027,6827.9723 1273,6830.12683 1273,6834.31021 L1273,6841 L1268.00642,6841 L1268.00642,6833.96235 C1268.00642,6832.85241 1267.11257,6831.95159 1266.00899,6831.95159 L1266.00899,6831.95159 Z M1254.51377,6825.91932 L1254.48481,6825.91932 C1252.97575,6825.91932 1252,6824.73096 1252,6823.42497 C1252,6822.08883 1253.00571,6821 1254.54373,6821 C1256.08275,6821 1257.02853,6822.12401 1257.0585,6823.46016 C1257.0585,6824.76715 1256.08275,6825.91932 1254.51377,6825.91932 L1254.51377,6825.91932 Z M1257.02055,6841 L1252.02697,6841 L1252.02697,6827.93008 L1257.02055,6827.93008 L1257.02055,6841 Z" id="Fill-263"></path>
        </g>
    </g>
</svg>