<?xml version="1.0" encoding="UTF-8"?>
<svg width="123px" height="32px" viewBox="0 0 123 32" version="1.1" xmlns="http://www.w3.org/2000/svg" xmlns:xlink="http://www.w3.org/1999/xlink">
    <!-- Generator: Sketch 47.1 (45422) - http://www.bohemiancoding.com/sketch -->
    <title>Biltz-zwart</title>
    <desc>Created with Sketch.</desc>
    <defs>
        <polygon id="path-1" points="0.0163716814 0.241524847 0.0163716814 31.5591559 36.3415855 31.5591559 36.3415855 0.241524847"></polygon>
    </defs>
    <g id="Symbols" stroke="none" stroke-width="1" fill="none" fill-rule="evenodd">
        <g id="Navbar" transform="translate(-50.000000, -36.000000)">
            <g id="Biltz-zwart">
                <g transform="translate(50.000000, 36.000000)">
                    <g id="Group-4">
                        <mask id="mask-2" fill="white">
                            <use xlink:href="#path-1"></use>
                        </mask>
                        <g id="Clip-2"></g>
                        <polygon id="Fill-1" fill="#1A1919" mask="url(#mask-2)" points="28.1704794 8.05255276 36.3415855 8.05255276 36.3415855 0.241524847 28.1704794 0.241524847"></polygon>
                        <path d="M8.15528024,11.7541184 L12.1532448,11.7541184 C13.7598525,11.7541184 14.5743437,11.1093261 14.5743437,9.83689585 C14.5743437,8.56446562 13.7598525,7.91912866 12.1532448,7.91912866 L8.15528024,7.91912866 L8.15528024,11.7541184 Z M8.15528024,23.6506467 L12.5379794,23.6506467 C14.5707965,23.6506467 14.9975516,22.503744 14.9975516,21.5414568 C14.9975516,20.5791695 14.5707965,19.4322668 12.5379794,19.4322668 L8.15528024,19.4322668 L8.15528024,23.6506467 Z M13.5377434,31.5591559 L0,31.5591559 L0,0.241524847 L12.6146534,0.241524847 C18.7592183,0.241524847 22.7301696,3.90251872 22.7301696,9.56814159 C22.7301696,11.90742 21.9729794,14.189789 20.4722419,15.6686181 C22.304233,17.3524847 23.1528319,19.5044248 23.1528319,21.810211 C23.1528319,27.3677332 19.0189823,31.5591559 13.5377434,31.5591559 L13.5377434,31.5591559 Z" id="Fill-3" fill="#1A1919" mask="url(#mask-2)"></path>
                    </g>
                    <polyline id="Fill-5" fill="#1A1919" points="74.7401585 31 66.7695561 31 66.7695561 7.6000713 58 7.6000713 58 0 79 0 79 7.6000713 74.7401585 7.6000713 74.7401585 31"></polyline>
                    <polyline id="Fill-6" fill="#1A1919" points="60 31 43 31 43 0 51.1444991 0 51.1444991 23.1721718 60 23.1721718 60 31"></polyline>
                    <path d="M114.499863,2.92653389 C111.345385,2.92653389 109.05591,5.27065532 109.05591,8.50027305 C109.05591,11.7296177 111.345385,14.0737392 114.499863,14.0737392 C117.654615,14.0737392 119.943817,11.7296177 119.943817,8.50027305 C119.943817,5.27065532 117.654615,2.92653389 114.499863,2.92653389 M114.499863,17 C109.812788,17 106,13.1871507 106,8.50027305 C106,3.81339544 109.812788,0 114.499863,0 C119.186666,0 123,3.81339544 123,8.50027305 C123,13.1871507 119.186666,17 114.499863,17" id="Fill-7" fill="#1A1919"></path>
                    <path d="M113.891851,7.72984352 L114.253931,7.72984352 C115.358183,7.72984352 115.543927,7.58066319 115.543927,7.24552906 C115.543927,7.10912817 115.543927,6.74634873 114.497738,6.74634873 L113.891851,6.74634873 L113.891851,7.72984352 Z M118,12 L115.751445,12 L113.911205,9.47619225 L113.891851,9.47619225 L113.891851,12 L112,12 L112,5 L114.832131,5 C116.560011,5 117.435509,5.75529061 117.435509,7.24552906 C117.435509,8.29448584 116.952735,9.00909091 116.060302,9.31005961 L118,12 L118,12 Z" id="Fill-8" fill="#1A1919"></path>
                    <path d="M86.2861455,0 L86.2861455,7.59581406 L94.436127,7.59581406 C94.436127,7.59581406 94.4559815,10.2638778 88.7204615,13.5338597 C82,17.3653264 82,25.0662673 82,25.0662673 L82,31 L114,31 L114,23.1303172 L90.2186672,23.1303172 L90.3973572,23.1303172 C90.3968206,22.8658829 90.46175,20.2493044 96.3628132,16.3305015 C102.639501,12.1631682 102.906463,5.42858509 102.906463,5.42858509 L102.909682,5.4151073 L102.909682,0 L86.2861455,0" id="Fill-9" fill="#1A1919"></path>
                    <polygon id="Fill-10" fill="#932273" points="28 32 36 32 36 24 28 24"></polygon>
                    <polygon id="Fill-11" fill="#84BF41" points="28 24 36 24 36 16 28 16"></polygon>
                    <polygon id="Fill-12" fill="#E8892D" points="28 16 36 16 36 8 28 8"></polygon>
                </g>
            </g>
        </g>
    </g>
</svg>