<?xml version="1.0" encoding="UTF-8"?>
<svg width="16px" height="23px" viewBox="0 0 16 23" version="1.1" xmlns="http://www.w3.org/2000/svg" xmlns:xlink="http://www.w3.org/1999/xlink">
    <!-- Generator: Sketch 47.1 (45422) - http://www.bohemiancoding.com/sketch -->
    <title>Fill 203</title>
    <desc>Created with Sketch.</desc>
    <defs></defs>
    <g id="Boostrap-3-Grid" stroke="none" stroke-width="1" fill="none" fill-rule="evenodd">
        <g id="Home" transform="translate(-1239.000000, -706.000000)" fill="#FFFFFF">
            <g id="Header">
                <g id="Group-7" transform="translate(1201.000000, 678.000000)">
                    <g id="Group-6" transform="translate(38.000000, 28.000000)">
                        <path d="M8.33198381,6.90364372 C8.33198381,7.69113522 7.7971498,8.33198381 7.1417004,8.33198381 C6.48545749,8.33198381 5.951417,7.69113522 5.951417,6.90364372 L5.951417,4.99919028 C5.951417,4.21169879 6.48545749,3.5708502 7.1417004,3.5708502 C7.7971498,3.5708502 8.33198381,4.21169879 8.33198381,4.99919028 L8.33198381,6.90364372 Z M9.1875,0 L6.28618421,0 C2.82007895,0 0,2.74682692 0,6.125 L0,16.4903846 C0,19.8676154 2.82007895,22.6153846 6.28618421,22.6153846 L9.1875,22.6153846 C12.6536053,22.6153846 15.4736842,19.8676154 15.4736842,16.4903846 L15.4736842,6.125 C15.4736842,2.74682692 12.6536053,0 9.1875,0 L9.1875,0 Z" id="Fill-203"></path>
                    </g>
                </g>
            </g>
        </g>
    </g>
</svg>