<?xml version="1.0" encoding="UTF-8"?>
<svg width="18px" height="15px" viewBox="0 0 18 15" version="1.1" xmlns="http://www.w3.org/2000/svg" xmlns:xlink="http://www.w3.org/1999/xlink">
    <!-- Generator: Sketch 47.1 (45422) - http://www.bohemiancoding.com/sketch -->
    <title>Group 16</title>
    <desc>Created with Sketch.</desc>
    <defs></defs>
    <g id="Boostrap-3-Grid" stroke="none" stroke-width="1" fill="none" fill-rule="evenodd">
        <g id="Home" transform="translate(-129.000000, -3612.000000)" fill="#000000">
            <g id="Waarom-biltz" transform="translate(1.000000, 3012.000000)">
                <g id="Group-7" transform="translate(70.000000, 599.000000)">
                    <g id="Group-16" transform="translate(67.000000, 8.500000) scale(-1, 1) translate(-67.000000, -8.500000) translate(58.000000, 1.000000)">
                        <path d="M5.625,1.5 L3.375,1.5 C3.168,1.5 3,1.66725 3,1.875 L3,3.7455 L0.375,3.7455 C0.168,3.744 0,3.91275 0,4.119 C0,4.3275 0.168,4.494 0.375,4.494 L3,4.494 L3,5.625 C3,5.83125 3.168,6 3.375,5.9955 L5.625,5.9955 C5.83125,6 6,5.83125 6,5.625 L6,1.875 C6,1.66725 5.83125,1.5 5.625,1.5" id="Fill-46"></path>
                        <path d="M10.5,8.25 L10.5,7.5 L11.32425,7.5 L11.49075,8.25 L10.5,8.25 Z M18,3.75 C18,1.68225 16.31775,0 14.25,0 L8.25,0 C7.4235,0 6.75,0.67275 6.75,1.5 L6.7845,6 C6.9435,6.852 7.68975,7.5 8.58675,7.5 L9.75,7.5 L9.75,8.625 C9.75,8.832 9.918,9 10.125,9 L11.65725,9 L12.65775,13.5 L10.875,13.5 C10.668,13.5 10.5,13.668 10.5,13.875 C10.5,14.082 10.668,14.25 10.875,14.25 L13.125,14.25 L13.875,14.25 L15.375,14.25 C15.38025,14.25075 15.38625,14.25075 15.39,14.25 C15.597,14.25 15.765,14.082 15.765,13.875 C15.765,13.80975 15.7485,13.74825 15.71925,13.695 L14.34075,7.491 C16.365,7.4415 18,5.78625 18,3.75 L18,3.75 Z" id="Fill-47"></path>
                    </g>
                </g>
            </g>
        </g>
    </g>
</svg>