<?xml version="1.0" encoding="UTF-8"?>
<svg width="22px" height="18px" viewBox="0 0 22 18" version="1.1" xmlns="http://www.w3.org/2000/svg" xmlns:xlink="http://www.w3.org/1999/xlink">
    <!-- Generator: Sketch 47.1 (45422) - http://www.bohemiancoding.com/sketch -->
    <title>twitter</title>
    <desc>Created with Sketch.</desc>
    <defs></defs>
    <g id="Boostrap-3-Grid" stroke="none" stroke-width="1" fill="none" fill-rule="evenodd">
        <g id="Home" transform="translate(-1157.000000, -6825.000000)" fill="#00ACE6">
            <path d="M1179,6827.334 C1178.2021,6827.697 1177.52967,6827.709 1176.81608,6827.35 C1177.7365,6826.788 1177.77865,6826.394 1178.11094,6825.331 C1177.25031,6825.852 1176.29656,6826.231 1175.28204,6826.436 C1174.47042,6825.553 1173.3118,6825 1172.03163,6825 C1169.57129,6825 1167.57753,6827.036 1167.57753,6829.544 C1167.57753,6829.901 1167.61673,6830.248 1167.69221,6830.58 C1163.98993,6830.391 1160.70816,6828.581 1158.5115,6825.831 C1158.12823,6826.503 1157.90768,6827.284 1157.90768,6828.117 C1157.90768,6829.694 1158.6948,6831.084 1159.88968,6831.899 C1159.15942,6831.875 1158.47327,6831.671 1157.87239,6831.331 C1157.87141,6831.35 1157.87141,6831.368 1157.87141,6831.388 C1157.87141,6833.59 1159.40741,6835.426 1161.44529,6835.844 C1160.79246,6836.025 1160.10435,6836.053 1159.4329,6835.922 C1160.00045,6837.727 1161.64525,6839.041 1163.59392,6839.078 C1161.68838,6840.602 1159.32508,6841.237 1157,6840.959 C1158.97122,6842.248 1161.31198,6843 1163.82721,6843 C1172.02085,6843 1176.49947,6836.076 1176.49947,6830.071 C1176.49947,6829.873 1176.49652,6829.679 1176.4877,6829.483 C1177.35716,6828.843 1178.40305,6828.246 1179,6827.334" id="twitter"></path>
        </g>
    </g>
</svg>